<svg version="1" xmlns="http://www.w3.org/2000/svg" width="533.333" height="533.333" viewBox="0 0 400.000000 400.000000"><path d="M0 200v200h400V0H0v200zm228.8-98.8c1.7 1.7 1.7 45.9 0 47.6-1.7 1.7-125.9 1.7-127.6 0-1.7-1.7-1.7-45.9 0-47.6 1.7-1.7 125.9-1.7 127.6 0zm70 0c1.7 1.7 1.7 125.9 0 127.6-1.7 1.7-45.9 1.7-47.6 0-1.7-1.7-1.7-125.9 0-127.6 1.7-1.7 45.9-1.7 47.6 0zm-150 70c1.7 1.7 1.7 125.9 0 127.6-1.7 1.7-45.9 1.7-47.6 0-1.7-1.7-1.7-125.9 0-127.6 1.7-1.7 45.9-1.7 47.6 0zm80 0c1.7 1.7 1.7 55.9 0 57.6-1.7 1.7-55.9 1.7-57.6 0-1.7-1.7-1.7-55.9 0-57.6 1.7-1.7 55.9-1.7 57.6 0zm70 80c1.7 1.7 1.7 45.9 0 47.6-1.7 1.7-125.9 1.7-127.6 0-1.7-1.7-1.7-45.9 0-47.6 1.7-1.7 125.9-1.7 127.6 0z"/></svg>