<?xml version="1.0" standalone="no"?>
<!DOCTYPE svg PUBLIC "-//W3C//DTD SVG 20010904//EN"
 "http://www.w3.org/TR/2001/REC-SVG-20010904/DTD/svg10.dtd">
<svg version="1.0" xmlns="http://www.w3.org/2000/svg"
 width="400.000000pt" height="400.000000pt" viewBox="0 0 400.000000 400.000000"
 preserveAspectRatio="xMidYMid meet">
<metadata>
Created by potrace 1.11, written by Peter Selinger 2001-2013
</metadata>
<g transform="translate(0.000000,400.000000) scale(0.100000,-0.100000)"
fill="#000000" stroke="none">
<path d="M0 2000 l0 -2000 2000 0 2000 0 0 2000 0 2000 -2000 0 -2000 0 0
-2000z m2288 988 c17 -17 17 -459 0 -476 -17 -17 -1259 -17 -1276 0 -17 17
-17 459 0 476 17 17 1259 17 1276 0z m700 0 c17 -17 17 -1259 0 -1276 -17 -17
-459 -17 -476 0 -17 17 -17 1259 0 1276 17 17 459 17 476 0z m-1500 -700 c17
-17 17 -1259 0 -1276 -17 -17 -459 -17 -476 0 -17 17 -17 1259 0 1276 17 17
459 17 476 0z m800 0 c17 -17 17 -559 0 -576 -17 -17 -559 -17 -576 0 -17 17
-17 559 0 576 17 17 559 17 576 0z m700 -800 c17 -17 17 -459 0 -476 -17 -17
-1259 -17 -1276 0 -17 17 -17 459 0 476 17 17 1259 17 1276 0z"/>
</g>
</svg>
